<?xml version="1.0" standalone="no"?>
<!DOCTYPE svg PUBLIC "-//W3C//DTD SVG 20010904//EN"
 "http://www.w3.org/TR/2001/REC-SVG-20010904/DTD/svg10.dtd">
<svg version="1.0" xmlns="http://www.w3.org/2000/svg"
 width="2040.000000pt" height="692.000000pt" viewBox="0 0 2040.000000 692.000000"
 preserveAspectRatio="xMidYMid meet">
<metadata>
Created by potrace 1.16, written by Peter Selinger 2001-2019
</metadata>
<g transform="translate(0.000000,692.000000) scale(0.100000,-0.100000)"
fill="#000000" stroke="none">
<path d="M8461 5500 c-69 -15 -148 -74 -190 -144 -59 -98 -72 -281 -26 -396
67 -170 245 -249 425 -188 40 13 80 36 106 60 43 39 81 115 71 140 -4 11 -97
48 -120 48 -4 0 -16 -22 -27 -49 -27 -62 -67 -91 -133 -98 -70 -6 -133 25
-165 83 -30 55 -39 169 -22 271 11 67 18 83 47 110 50 48 129 65 190 42 37
-14 83 -58 83 -80 0 -10 4 -20 9 -23 10 -6 127 16 137 27 13 13 -27 96 -62
126 -61 54 -110 73 -199 77 -44 2 -100 -1 -124 -6z"/>
<path d="M13613 5500 c-113 -24 -206 -124 -243 -262 -8 -31 -11 -81 -7 -143
12 -226 140 -355 354 -357 136 0 228 46 300 152 18 26 37 68 43 93 14 64 14
211 -1 277 -20 91 -103 188 -193 225 -46 19 -193 28 -253 15z m197 -132 c77
-39 112 -115 113 -243 2 -182 -102 -294 -244 -264 -62 13 -102 47 -136 113
-24 45 -27 62 -26 151 1 112 19 169 70 216 56 53 149 64 223 27z"/>
<path d="M9028 5493 l-38 -4 0 -370 0 -369 268 0 c147 0 273 4 280 9 9 5 12
25 10 57 l-3 49 -202 3 -203 2 0 110 0 110 183 0 184 0 -1 58 -1 57 -182 -3
-183 -3 0 84 0 85 54 6 c30 4 116 6 193 5 l138 -2 3 53 c2 36 -1 56 -10 61
-13 8 -416 10 -490 2z"/>
<path d="M9697 5493 l-27 -4 2 -367 3 -367 68 -3 68 -3 -1 228 c-1 125 -1 235
-1 243 1 8 11 -1 23 -20 12 -19 36 -57 53 -85 18 -27 76 -121 130 -207 l97
-158 74 0 74 0 -2 373 c-3 347 -4 372 -20 371 -10 -1 -40 -2 -68 -3 l-50 -1
-1 -242 c0 -163 -3 -238 -10 -228 -31 47 -279 455 -282 463 -3 10 -85 16 -130
10z"/>
<path d="M10384 5486 c-3 -7 -4 -35 -2 -62 l3 -49 105 0 105 0 5 -310 5 -310
73 -3 72 -3 0 309 0 310 31 6 c17 3 64 6 105 6 l73 0 7 45 c11 77 19 75 -298
75 -227 0 -280 -3 -284 -14z"/>
<path d="M11103 5493 l-53 -4 0 -370 0 -369 280 0 281 0 -3 58 -3 57 -202 3
-203 2 0 100 c0 55 0 103 0 108 0 4 78 8 172 10 95 2 179 5 186 7 9 3 12 21
10 57 l-3 53 -182 -3 -183 -3 0 84 c0 79 1 85 23 91 12 3 100 6 195 6 l173 0
-3 58 -3 57 -215 1 c-118 0 -239 -1 -267 -3z"/>
<path d="M11772 5493 l-42 -4 2 -367 3 -367 73 -3 72 -3 0 151 0 150 55 0 c71
0 99 -24 194 -168 39 -59 76 -113 82 -119 10 -13 179 -19 179 -7 0 4 -38 63
-84 133 -61 91 -96 134 -127 153 -27 17 -37 29 -28 32 111 35 153 70 179 150
29 89 -18 201 -103 244 -44 23 -58 25 -229 27 -101 2 -202 1 -226 -2z m387
-149 c24 -31 27 -71 7 -118 -16 -39 -34 -44 -183 -53 l-103 -6 0 102 0 101
129 0 c128 0 130 0 150 -26z"/>
<path d="M12825 5491 l-60 -6 1 -358 c1 -298 3 -360 15 -368 8 -5 40 -9 71 -9
l57 0 6 55 c4 31 4 103 0 160 l-7 105 156 0 156 0 0 60 0 59 -152 3 -152 3 -4
86 -4 86 28 7 c15 4 86 7 158 6 72 -1 141 -1 154 -1 20 1 22 6 22 55 0 52 -1
54 -31 60 -37 7 -328 5 -414 -3z"/>
<path d="M14240 5493 l-45 -4 2 -337 c1 -185 2 -352 3 -369 l0 -33 70 0 70 0
0 154 0 154 48 -5 c26 -2 59 -9 74 -15 27 -10 103 -108 181 -230 l37 -58 85 0
c47 0 85 2 85 5 0 9 -121 197 -153 238 -16 21 -42 44 -58 53 -16 8 -29 18 -29
22 0 4 21 14 46 21 64 19 108 61 128 120 22 68 20 107 -8 166 -48 102 -87 117
-316 120 -96 2 -195 1 -220 -2z m376 -144 c19 -17 24 -33 24 -69 0 -25 -7 -55
-15 -67 -19 -28 -91 -43 -200 -43 l-85 0 0 103 0 102 126 -2 c116 -1 128 -3
150 -24z"/>
<path d="M11489 2665 c-88 -24 -158 -86 -210 -185 -22 -41 -24 -57 -24 -190 0
-133 2 -149 24 -194 35 -70 109 -140 178 -167 75 -30 203 -32 280 -6 70 24
146 95 186 171 31 60 31 64 31 196 0 135 0 135 -34 199 -48 87 -115 146 -197
171 -74 23 -164 25 -234 5z m211 -130 c102 -53 140 -256 75 -401 -26 -59 -64
-89 -126 -103 -89 -19 -179 21 -218 97 -87 171 -18 399 129 426 39 7 108 -2
140 -19z"/>
<path d="M8268 2662 l-28 -3 0 -370 0 -369 70 0 70 0 0 230 c0 135 4 230 9
230 5 0 24 -25 42 -57 18 -31 79 -130 136 -221 56 -91 103 -169 103 -174 0 -4
36 -8 80 -8 l80 0 0 370 0 369 -33 6 c-18 4 -49 5 -68 3 l-34 -3 -5 -245 c-6
-277 4 -264 -85 -115 -27 44 -72 118 -101 165 -29 47 -67 109 -84 138 -17 30
-38 52 -48 53 -9 0 -30 1 -47 2 -16 1 -42 1 -57 -1z"/>
<path d="M8990 2294 l0 -374 280 0 280 0 0 60 0 60 -205 0 -205 0 0 104 0 104
143 7 c78 3 160 5 182 3 l40 -3 3 58 3 57 -185 0 -186 0 0 85 0 85 195 0 196
0 -3 63 -3 62 -267 1 -268 1 0 -373z"/>
<path d="M9640 2602 l0 -64 103 4 102 3 3 -312 2 -313 75 0 75 0 2 138 c2 75
1 215 0 310 l-3 172 98 0 c54 0 104 4 111 9 9 5 12 25 10 62 l-3 54 -287 0
-288 0 0 -63z"/>
<path d="M10249 2662 c-14 -6 -12 -23 17 -142 49 -205 100 -426 121 -517 l18
-83 80 0 80 0 23 78 c13 42 27 93 32 112 5 19 25 94 44 165 20 72 36 142 36
157 0 15 4 29 9 33 10 5 17 -17 70 -220 17 -66 44 -166 59 -222 l27 -103 77 0
77 0 20 68 c10 37 24 92 30 122 7 30 21 89 31 130 11 41 33 134 50 205 16 72
35 147 42 168 15 50 3 58 -77 55 l-60 -3 -23 -90 c-12 -49 -29 -124 -36 -165
-24 -125 -50 -240 -56 -240 -6 0 -53 171 -99 359 -17 68 -33 126 -35 128 -2 2
-43 5 -91 6 l-88 2 -18 -75 c-9 -41 -31 -129 -49 -195 -18 -66 -37 -141 -44
-167 -13 -56 -23 -68 -30 -37 -3 13 -18 85 -35 159 -16 74 -37 174 -46 222
-15 72 -21 87 -39 92 -28 8 -97 6 -117 -2z"/>
<path d="M12108 2662 c-16 -2 -28 -9 -29 -15 -1 -9 0 -463 1 -699 0 -28 0 -28
70 -28 l70 0 0 149 c0 147 0 150 23 153 45 7 99 -10 130 -40 18 -17 66 -83
107 -146 l75 -115 88 0 c48 -1 87 1 87 4 0 3 -33 55 -74 117 -73 112 -111 158
-142 176 -23 13 -10 29 27 37 45 10 115 82 128 131 14 52 4 128 -23 177 -22
42 -79 80 -136 93 -34 7 -348 12 -402 6z m386 -141 c40 -44 36 -128 -8 -156
-18 -12 -55 -16 -142 -18 l-119 -2 -3 98 -3 97 129 0 c113 0 131 -2 146 -19z"/>
<path d="M12827 2663 c-4 -3 -7 -172 -7 -375 l0 -368 75 0 75 0 0 109 0 109
59 64 c33 34 61 61 63 58 6 -8 174 -292 187 -317 10 -20 20 -22 106 -25 52 -2
95 0 95 4 0 6 -121 194 -251 390 l-37 57 134 140 c74 77 134 145 134 151 0 8
-30 10 -95 7 l-95 -5 -43 -48 c-98 -113 -242 -269 -249 -272 -4 -2 -8 68 -8
156 l0 159 -52 7 c-68 8 -83 8 -91 -1z"/>
<path d="M10042 1673 c3 -23 -2 -28 -33 -36 -52 -12 -84 -49 -84 -97 0 -46 15
-65 44 -55 25 8 27 23 5 40 -14 10 -15 17 -5 47 11 34 27 48 53 48 6 0 8 -14
4 -37 -14 -82 -13 -98 12 -101 20 -3 22 1 22 38 0 23 7 69 15 101 17 65 14 79
-16 79 -15 0 -19 -6 -17 -27z"/>
<path d="M13603 1679 c9 -33 -3 -49 -37 -49 -17 0 -36 -4 -43 -8 -32 -20 -45
-128 -17 -139 25 -9 41 14 26 37 -9 15 -9 25 -1 43 7 12 15 29 19 37 14 30 35
17 31 -20 -9 -80 -7 -95 15 -98 18 -3 21 5 32 80 7 46 15 95 18 111 6 24 4 27
-21 27 -23 0 -26 -3 -22 -21z"/>
<path d="M16368 1668 c-3 -28 -7 -33 -33 -36 -41 -5 -62 -27 -70 -72 -9 -54 1
-82 28 -78 14 2 20 9 18 18 -3 8 -6 35 -9 59 -4 46 6 61 42 61 16 0 17 -6 12
-42 -13 -89 -12 -93 12 -96 19 -3 22 1 22 30 0 18 7 58 15 88 22 81 20 100 -9
100 -21 0 -25 -6 -28 -32z"/>
<path d="M18160 1668 c-1 -18 -7 -64 -14 -103 -8 -38 -13 -71 -11 -73 1 -2 18
-5 37 -9 30 -4 40 0 66 25 37 36 49 74 33 108 -11 25 -18 28 -38 16 -10 -6
-10 -15 -1 -38 13 -36 -6 -87 -35 -92 -20 -4 -23 22 -6 65 6 15 13 52 14 81 4
49 3 52 -21 52 -20 0 -24 -5 -24 -32z"/>
<path d="M8446 1568 c-4 -40 -14 -87 -21 -105 -15 -36 -11 -43 22 -43 22 0 24
3 18 30 -6 28 -5 30 22 30 42 0 71 25 84 72 12 47 0 88 -27 88 -13 0 -15 -6
-8 -27 17 -63 0 -113 -39 -113 -17 0 -19 4 -12 38 14 73 12 97 -11 100 -20 3
-22 -3 -28 -70z"/>
<path d="M8790 1627 c-34 -17 -53 -61 -46 -103 7 -33 9 -34 51 -34 36 0 48 5
61 25 18 27 23 90 8 104 -18 17 -49 20 -74 8z"/>
<path d="M9213 1628 c-30 -14 -55 -70 -47 -103 12 -47 78 -53 113 -11 19 23
26 90 10 103 -23 18 -53 22 -76 11z"/>
<path d="M10559 1629 c-44 -16 -65 -94 -36 -133 20 -27 79 -13 100 24 18 29
22 77 9 96 -11 17 -44 23 -73 13z"/>
<path d="M12185 1628 c-33 -18 -45 -40 -45 -85 0 -37 4 -45 25 -53 27 -10 64
-1 82 21 5 8 13 33 16 57 4 35 2 45 -16 57 -25 18 -35 18 -62 3z"/>
<path d="M13290 1632 c-36 -11 -50 -35 -50 -82 0 -51 14 -71 45 -65 11 2 27 4
36 4 9 1 21 12 27 26 15 32 16 102 2 110 -15 9 -43 13 -60 7z"/>
<path d="M13974 1630 c-33 -13 -54 -50 -54 -97 0 -33 4 -43 20 -48 31 -10 42
3 24 30 -22 33 -3 105 27 105 20 0 21 -4 14 -72 -4 -43 -14 -80 -23 -90 -19
-22 -61 -23 -68 -3 -8 21 -21 19 -27 -5 -4 -16 1 -21 28 -26 74 -14 118 28
135 126 7 39 10 73 9 74 -11 9 -67 13 -85 6z"/>
<path d="M15094 1625 c-57 -24 -70 -113 -20 -136 38 -18 83 12 97 63 17 65
-18 98 -77 73z"/>
<path d="M17413 1632 c-33 -5 -53 -40 -53 -93 0 -40 3 -48 23 -53 37 -10 45
-7 77 24 30 29 40 79 22 106 -9 13 -40 21 -69 16z"/>
<path d="M6937 13 c519 -2 1367 -2 1885 0 519 1 95 2 -942 2 -1037 0 -1461 -1
-943 -2z"/>
<path d="M14983 13 c703 -2 1851 -2 2550 0 700 1 125 2 -1278 2 -1402 0 -1975
-1 -1272 -2z"/>
</g>
</svg>
